<svg width="746" height="768" viewBox="0 0 746 768" fill="none" xmlns="http://www.w3.org/2000/svg">
<path fill-rule="evenodd" clip-rule="evenodd" d="M524.407 654.26L564.792 639.059C619.402 618.504 660.577 570.268 671.402 511.462H73.6379C84.4637 570.286 125.647 618.587 180.23 639.253L220.153 654.369L225.409 696.505H519.464L524.407 654.26ZM587.27 726.499C584.359 749.835 564.565 767.337 540.987 767.337H204.053C180.62 767.337 160.681 749.835 157.77 726.499L155.15 705.496C64.6215 671.221 0 583.419 0 480.594C0 458.57 17.9019 440.63 39.8791 440.63H705.161C727.138 440.63 745.04 458.57 745.04 480.594C745.04 583.419 680.418 671.221 589.744 705.35L587.27 726.499Z" fill="#90170C"/>
<path d="M276.922 186.124C275.301 180.075 277.649 173.639 282.775 169.97L347.179 124.082L354.955 45.6959C355.589 39.4488 360.022 34.2094 366.102 32.5804C372.181 30.9513 378.64 33.2721 382.313 38.3653L428.24 102.362L506.959 109.9C513.233 110.515 518.485 114.915 520.105 120.963C521.726 127.011 519.378 133.447 514.252 137.116L449.848 183.004L442.072 261.39C441.438 267.637 437.005 272.877 430.925 274.506C424.846 276.135 418.387 273.814 414.714 268.721L368.787 204.724L290.067 197.186C283.794 196.572 278.542 192.172 276.922 186.124Z" fill="#90170C"/>
<path d="M127.952 355.752C123.73 353.314 121.479 348.478 122.281 343.636L132.475 282.913L93.5994 235.474C90.509 231.686 90.0652 226.36 92.5156 222.116C94.9659 217.872 99.7999 215.594 104.626 216.376L165.147 226.324L212.637 187.134C216.43 184.018 221.743 183.55 225.966 185.987C230.188 188.425 232.439 193.261 231.637 198.103L221.442 258.827L260.318 306.265C263.408 310.053 263.852 315.379 261.402 319.623C258.951 323.867 254.118 326.145 249.291 325.363L188.771 315.415L141.28 354.605C137.488 357.721 132.174 358.189 127.952 355.752Z" fill="#90170C"/>
<path d="M533.409 385.755C530.591 382.937 529.837 378.641 531.494 374.987L552.395 329.189L531.732 283.5C530.093 279.854 530.869 275.555 533.702 272.721C536.536 269.888 540.835 269.112 544.481 270.751L590.17 291.414L635.968 270.513C639.622 268.856 643.918 269.61 646.736 272.428C649.555 275.247 650.309 279.542 648.651 283.197L627.751 328.994L648.414 374.683C650.053 378.329 649.276 382.629 646.443 385.462C643.61 388.295 639.31 389.072 635.664 387.433L589.975 366.77L544.178 387.67C540.523 389.328 536.228 388.574 533.409 385.755Z" fill="#90170C"/>
</svg>
