<svg width="4950" height="989" viewBox="0 0 4950 989" fill="none" xmlns="http://www.w3.org/2000/svg">
<path d="M1140.5 515.5C1140.5 559.367 1149.13 593.2 1166.4 617C1184.13 640.333 1211.2 652 1247.6 652C1263.47 652 1279.1 650.133 1294.5 646.4C1309.9 642.667 1328.33 636.133 1349.8 626.8L1370.1 678.6C1347.23 688.867 1325.53 696.333 1305 701C1284.47 705.667 1264.63 708 1245.5 708C1190.43 708 1148.67 690.733 1120.2 656.2C1091.73 621.667 1077.5 574.767 1077.5 515.5V410.5C1077.5 351.233 1091.73 304.333 1120.2 269.8C1148.67 235.267 1190.43 218 1245.5 218C1264.63 218 1284.47 220.333 1305 225C1326 229.667 1347.23 237.133 1368.7 247.4L1349.1 299.9C1311.3 283.1 1277.47 274.7 1247.6 274.7C1211.2 274.7 1184.13 286.367 1166.4 309.7C1149.13 333.033 1140.5 366.633 1140.5 410.5V515.5ZM1715.1 506.4V548.4C1715.1 597.867 1702.27 636.833 1676.6 665.3C1651.4 693.767 1615.23 708 1568.1 708C1521.43 708 1485.27 693.767 1459.6 665.3C1433.93 636.833 1421.1 597.867 1421.1 548.4V506.4C1421.1 457.867 1433.7 419.367 1458.9 390.9C1484.57 361.967 1520.97 347.5 1568.1 347.5C1615.23 347.5 1651.4 361.967 1676.6 390.9C1702.27 419.367 1715.1 457.867 1715.1 506.4ZM1655.6 506.4C1655.6 473.267 1648.13 447.367 1633.2 428.7C1618.27 409.567 1596.57 400 1568.1 400C1540.1 400 1518.4 409.567 1503 428.7C1488.07 447.367 1480.6 473.267 1480.6 506.4V548.4C1480.6 582.933 1488.07 609.533 1503 628.2C1518.4 646.867 1540.1 656.2 1568.1 656.2C1596.57 656.2 1618.27 646.867 1633.2 628.2C1648.13 609.533 1655.6 582.933 1655.6 548.4V506.4ZM2093.81 506.4V548.4C2093.81 597.867 2080.98 636.833 2055.31 665.3C2030.11 693.767 1993.95 708 1946.81 708C1900.15 708 1863.98 693.767 1838.31 665.3C1812.65 636.833 1799.81 597.867 1799.81 548.4V506.4C1799.81 457.867 1812.41 419.367 1837.61 390.9C1863.28 361.967 1899.68 347.5 1946.81 347.5C1993.95 347.5 2030.11 361.967 2055.31 390.9C2080.98 419.367 2093.81 457.867 2093.81 506.4ZM2034.31 506.4C2034.31 473.267 2026.85 447.367 2011.91 428.7C1996.98 409.567 1975.28 400 1946.81 400C1918.81 400 1897.11 409.567 1881.71 428.7C1866.78 447.367 1859.31 473.267 1859.31 506.4V548.4C1859.31 582.933 1866.78 609.533 1881.71 628.2C1897.11 646.867 1918.81 656.2 1946.81 656.2C1975.28 656.2 1996.98 646.867 2011.91 628.2C2026.85 609.533 2034.31 582.933 2034.31 548.4V506.4ZM2411.62 701L2314.32 540.7C2305.46 549.567 2296.12 558.667 2286.32 568C2276.52 577.333 2266.26 586.667 2255.52 596V701H2198.12V183H2255.52V531.6C2285.86 502.2 2312.69 473.5 2336.02 445.5C2359.82 417.5 2381.52 387.167 2401.12 354.5H2466.92C2450.12 382.5 2432.86 408.4 2415.12 432.2C2397.86 455.533 2378.26 479.333 2356.32 503.6L2480.92 701H2411.62ZM2818.19 701L2782.49 590.4H2601.89L2566.19 701H2506.69L2664.89 225H2722.29L2881.19 701H2818.19ZM2645.99 453.2L2619.39 535.1H2764.29L2737.69 453.2L2692.19 306.2L2645.99 453.2ZM3031.1 701H2970.2V225H3031.1V701Z" fill="#90170C"/>
<path fill-rule="evenodd" clip-rule="evenodd" d="M632.407 714.26L672.792 699.059C727.402 678.504 768.577 630.268 779.402 571.462H181.638C192.464 630.286 233.647 678.587 288.23 699.253L328.153 714.369L333.409 756.505H627.464L632.407 714.26ZM695.27 786.499C692.359 809.835 672.565 827.337 648.987 827.337H312.053C288.62 827.337 268.681 809.835 265.77 786.499L263.15 765.496C172.622 731.221 108 643.419 108 540.594C108 518.57 125.902 500.63 147.879 500.63H813.161C835.138 500.63 853.04 518.57 853.04 540.594C853.04 643.419 788.418 731.221 697.744 765.35L695.27 786.499Z" fill="#90170C"/>
<path d="M384.922 246.124C383.301 240.075 385.649 233.639 390.775 229.97L455.179 184.082L462.955 105.696C463.589 99.4488 468.022 94.2094 474.102 92.5804C480.181 90.9513 486.64 93.2721 490.313 98.3653L536.24 162.362L614.959 169.9C621.233 170.515 626.485 174.915 628.105 180.963C629.726 187.011 627.378 193.447 622.252 197.116L557.848 243.004L550.072 321.39C549.438 327.637 545.005 332.877 538.925 334.506C532.846 336.135 526.387 333.814 522.714 328.721L476.787 264.724L398.067 257.186C391.794 256.572 386.542 252.172 384.922 246.124Z" fill="#90170C"/>
<path d="M235.952 415.752C231.73 413.314 229.479 408.478 230.281 403.636L240.475 342.913L201.599 295.474C198.509 291.686 198.065 286.36 200.516 282.116C202.966 277.872 207.8 275.594 212.626 276.376L273.147 286.324L320.637 247.134C324.43 244.018 329.743 243.55 333.966 245.987C338.188 248.425 340.439 253.261 339.637 258.103L329.442 318.827L368.318 366.265C371.408 370.053 371.852 375.379 369.402 379.623C366.951 383.867 362.118 386.145 357.291 385.363L296.771 375.415L249.28 414.605C245.488 417.721 240.174 418.189 235.952 415.752Z" fill="#90170C"/>
<path d="M641.409 445.755C638.591 442.937 637.837 438.641 639.494 434.987L660.395 389.189L639.732 343.5C638.093 339.854 638.869 335.555 641.702 332.721C644.536 329.888 648.835 329.112 652.481 330.751L698.17 351.414L743.968 330.513C747.622 328.856 751.918 329.61 754.736 332.428C757.555 335.247 758.309 339.542 756.651 343.197L735.751 388.994L756.414 434.683C758.053 438.329 757.276 442.629 754.443 445.462C751.61 448.295 747.31 449.072 743.664 447.433L697.975 426.77L652.178 447.67C648.523 449.328 644.228 448.574 641.409 445.755Z" fill="#90170C"/>
</svg>
